<svg width="764" height="749" viewBox="0 0 764 749" fill="none" xmlns="http://www.w3.org/2000/svg">
<path fill-rule="evenodd" clip-rule="evenodd" d="M383.823 0.66701C195.677 0.475644 35.2095 136.872 5.08483 322.59C-25.0397 508.31 84.0868 688.437 262.647 747.727C281.941 751.257 288.765 739.257 288.765 729.137C288.765 719.02 288.765 695.96 288.765 663.96C181.706 687.257 159.118 612.43 159.118 612.43C152.015 589.24 136.926 569.317 116.529 556.197C81.9411 532.667 119.353 532.667 119.353 532.667C143.92 536.137 165.526 550.713 177.941 572.197C188.456 591.263 206.131 605.353 227.06 611.36C247.988 617.363 270.447 614.787 289.47 604.197C290.947 584.84 299.292 566.647 313 552.903C227.823 543.257 138.412 510.313 138.412 364.667C137.827 326.62 151.896 289.804 177.706 261.843C166.211 228.762 167.554 192.57 181.471 160.432C181.471 160.432 213.706 150.079 286.882 199.726C349.72 182.473 416.043 182.473 478.883 199.726C552.06 150.079 584.06 160.432 584.06 160.432C598.17 192.23 599.847 228.162 588.763 261.137C614.573 289.098 628.643 325.913 628.06 363.96C628.06 511.257 538.413 543.49 453 552.197C471.53 570.823 481.06 596.58 479.117 622.783C479.117 674.08 479.117 715.49 479.117 727.96C479.117 740.43 485.94 750.08 505.47 746.313C681.91 685.49 788.897 506.427 758.847 322.23C728.797 138.037 570.447 2.25968 383.823 0.66701Z" fill="#828282"/>
</svg>
