<svg width="800" height="800" viewBox="0 0 800 800" fill="none" xmlns="http://www.w3.org/2000/svg">
<path d="M399.095 354.649C367.855 354.649 345.331 375.023 345.331 405.583C345.331 436.144 370.685 456.517 401.924 456.517C420.798 456.517 437.436 449.047 447.736 436.455L426.089 423.948C420.374 430.201 411.687 433.852 401.924 433.852C388.37 433.852 376.853 426.777 372.581 415.459H451.868C452.49 412.29 452.858 409.007 452.858 405.555C452.858 375.023 430.334 354.649 399.095 354.649ZM372.326 395.679C375.863 384.389 385.54 377.287 399.066 377.287C412.62 377.287 422.298 384.389 425.806 395.679H372.326ZM703.792 354.649C672.552 354.649 650.028 375.023 650.028 405.583C650.028 436.144 675.382 456.517 706.621 456.517C725.495 456.517 742.134 449.047 752.433 436.455L730.787 423.948C725.071 430.201 716.384 433.852 706.621 433.852C693.067 433.852 681.551 426.777 677.278 415.459H756.565C757.187 412.29 757.555 409.007 757.555 405.555C757.555 375.023 735.031 354.649 703.792 354.649ZM677.052 395.679C680.589 384.389 690.266 377.287 703.792 377.287C717.346 377.287 727.023 384.389 730.532 395.679H677.052ZM566.61 405.583C566.61 422.561 577.702 433.88 594.907 433.88C606.565 433.88 615.308 428.588 619.808 419.958L641.539 432.493C632.541 447.49 615.676 456.517 594.907 456.517C563.639 456.517 541.143 436.144 541.143 405.583C541.143 375.023 563.667 354.649 594.907 354.649C615.676 354.649 632.513 363.676 641.539 378.673L619.808 391.209C615.308 382.578 606.565 377.287 594.907 377.287C577.731 377.287 566.61 388.605 566.61 405.583ZM800 323.523V453.687H774.533V323.523H800ZM104.556 309.375L209.111 490.473H0L104.556 309.375ZM365.959 323.523L287.55 459.347L209.14 323.523H238.54L287.55 408.413L336.559 323.523H365.959ZM532.654 357.479V384.898C529.825 384.078 526.825 383.512 523.599 383.512C507.159 383.512 495.303 394.831 495.303 411.809V453.687H469.836V357.479H495.303V383.512C495.303 369.137 512.026 357.479 532.654 357.479Z" fill="#828282"/>
</svg>
